<?xml version="1.0" standalone="no"?>
<!DOCTYPE svg PUBLIC "-//W3C//DTD SVG 20010904//EN"
 "http://www.w3.org/TR/2001/REC-SVG-20010904/DTD/svg10.dtd">
<svg version="1.0" xmlns="http://www.w3.org/2000/svg"
 width="112.000000pt" height="112.000000pt" viewBox="0 0 112.000000 112.000000"
 preserveAspectRatio="xMidYMid meet">
<metadata>
Created by potrace 1.11, written by Peter Selinger 2001-2013
</metadata>
<g transform="translate(0.000000,112.000000) scale(0.100000,-0.100000)"
fill="#000000" stroke="none">
<path d="M308 909 c-115 -17 -220 -96 -274 -205 -26 -53 -29 -69 -29 -154 1
-84 4 -102 30 -155 35 -72 103 -142 168 -173 45 -21 58 -22 257 -20 l210 3
-25 37 c-25 36 -33 68 -17 68 11 0 68 98 81 142 24 74 14 179 -22 258 -28 59
-110 140 -170 168 -58 27 -146 40 -209 31z m139 -195 c42 -20 57 -35 77 -77
30 -58 33 -102 11 -155 -33 -77 -91 -115 -177 -115 -199 0 -256 271 -73 354
55 25 102 24 162 -7z"/>
<path d="M761 792 c29 -53 72 -132 96 -174 23 -43 43 -83 43 -90 0 -7 -9 -24
-20 -38 -11 -14 -20 -28 -20 -31 0 -3 -31 -61 -70 -128 -38 -68 -70 -125 -70
-127 0 -2 44 -4 98 -4 l97 0 93 164 94 164 -17 34 c-10 18 -53 99 -97 179
l-80 147 -99 0 -100 1 52 -97z"/>
<path d="M1040 245 c-7 -8 -9 -22 -6 -31 5 -13 9 -14 21 -4 10 9 15 9 15 1 0
-6 7 -11 15 -11 18 0 20 31 3 48 -16 16 -33 15 -48 -3z m47 -21 c2 -13 1 -15
-4 -4 -3 8 -11 19 -17 23 -7 6 -6 7 4 4 8 -2 16 -12 17 -23z m-40 -6 c-3 -8
-6 -5 -6 6 -1 11 2 17 5 13 3 -3 4 -12 1 -19z"/>
</g>
</svg>
