<svg height="123" width="106" xmlns="http://www.w3.org/2000/svg"><linearGradient id="a" x1="50%" x2="50%" y1="0%" y2="100%"><stop offset="0" stop-color="#116bf2"/><stop offset="1" stop-color="#1b3ab5"/></linearGradient><g fill="none" fill-rule="evenodd"><path d="M53 0l53 30.8v61.5L53 123 0 92.2V30.8z" fill="url(#a)"/><path d="M53 6l48.1 27.8v55.5l-48 27.7L5 89.2V33.8z" stroke="#fff" stroke-width="2"/><path d="M41.5 96v-1.3l2.6-2.6c.5-.5.7-.8.7-1.3s-.3-.8-1-.8c-.6 0-1.3.3-2 .7l-.1-1.5c.6-.4 1.4-.8 2.4-.8 1.6 0 2.5.8 2.5 2.2 0 1-.5 1.6-1.4 2.5l-1.5 1.4h2.8l.3 1.5zm12.2-3.7c0 2.5-1.2 3.8-3 3.8-2 0-3.2-1.3-3.2-3.8s1.3-3.9 3.1-3.9c1.9 0 3.1 1.4 3.1 3.9zm-1.8 0c0-1.6-.4-2.5-1.3-2.5s-1.2.9-1.2 2.5.4 2.4 1.2 2.4S52 94 52 92.3zm6 3.7h-2v-5.7l-1.4.6-.2-1.5 1.9-.8h1.6zm2.2.2l-.2-1.5c1.5-.3 2.5-.8 2.9-1.9-.5.4-1.1.6-1.7.6-1.3 0-2.2-.8-2.2-2.3 0-1.7 1.2-2.7 2.8-2.7 1.7 0 2.8 1.1 2.8 3.2 0 2.6-1.8 4-4.4 4.6zm1.6-4.1c.4 0 .8-.1 1.2-.4 0-1.4-.5-2-1.2-2-.6 0-1 .5-1 1.3 0 .7.3 1 1 1z" fill="#f0f6ff"/><g fill="#fff"><path d="M22.2 73.8h-3V82h-2.6v-8.2h-3v-2.1h8.2zm10.7 3c0 3.2-2 5.4-5 5.4s-5-2.2-5-5.4 2-5.3 5-5.3 5 2.1 5 5.3zm-2.6 0c0-2-.9-3.3-2.4-3.3s-2.4 1.3-2.4 3.3 1 3.4 2.4 3.4c1.5 0 2.4-1.3 2.4-3.4zm4 5.2V71.7h3.4c2.5 0 4 1 4 3.3 0 2.4-1.6 3.6-4.1 3.6h-.7V82zm5-7c0-1-.6-1.4-1.7-1.4h-.7v3h.6c1.1 0 1.8-.5 1.8-1.5zm12.3 7.1l-2.2-3.7h-.7V82h-2.5V71.7h3.6c2.5 0 4 1 4 3.2a3 3 0 0 1-2 3l2.5 3.8zm-.4-7c0-1-.6-1.5-1.7-1.5h-.8v3h.8c1.1 0 1.7-.5 1.7-1.5zm11 7l-.8-2.2H58l-.7 2.1h-2.5l3.7-10.4h2.8l3.6 10zm-2.6-7.9l-1.1 3.6h2.3zm14.3-.4h-3V82h-2.6v-8.2h-3v-2.2h8.3zm7.8 8.2H75V71.6h6.4v2.1h-4v2h3l.4 2h-3.3V80h4zm10.5-5.2c0 3-2 5.2-5.5 5.2h-3.6V71.6h3.6c3.6 0 5.4 2.1 5.4 5.2zm-2.6 0c0-2.2-1.2-3.2-3-3.2h-1V80h1c1.8 0 3-1 3-3.2zM45 60v1.5H14V60zm16 0h32v1.5H61zM51.6 58.2l-.3.2H48c-.3 0-.4.4-.2.6l2.6 2 .2.3-1 3.1c0 .3.2.5.4.4l2.8-2h.3l2.7 2c.2.1.5-.1.4-.4l-1-3.1c0-.2 0-.3.2-.3l2.6-2c.2-.2.1-.6-.1-.6h-3.3c-.2 0-.3-.1-.3-.2L53.2 55c0-.2-.5-.2-.5 0z"/><g fill-rule="nonzero"><path d="M73.8 48.2l-8-7.8 1-1h-1.9l-.6-.5h3.1l1.3-1.3H63l-.6-.6h6.9l1-1c.2-.1.3-.4.3-.6v-6c0-.3-.1-.6-.3-.7l-1-1h-15l-1 1-.3.6v20.3c0 .3.3.4.5.2l4.2-4.1c.2-.2.3-.4.3-.7V29h7.5v6.9h-4.4l-3 3 9.7 9.7.6.3h5.1c.3 0 .5-.4.3-.6zM67.4 25.9H56.1L55 27h13.8zM65.8 24.3a1 1 0 0 0-.6-.3h-6.8c-.3 0-.5 0-.7.3l-1 1h10z"/><g><path d="M46.1 24.3a1 1 0 0 0-.6-.3h-12c-.3 0-.5.3-.3.5l.8.7H47zM47.8 25.9H34.6L36 27H49zM51 29.3c0-.2-.1-.5-.3-.6l-1-1H36.5l1 1c.2.2.5.3.7.3H46v16c0 .3 0 .5.2.7l4.4 4.1c.1.2.5.1.5-.2z"/></g></g></g></g></svg>