<svg xmlns="http://www.w3.org/2000/svg" xmlns:xlink="http://www.w3.org/1999/xlink" viewBox="0 0 94 122">
  <g id="container">
    <path fill="#fff" d="M8.1 89.9L47.6 110l38-20.1V11.3H8.1z"/>
    <path fill="#f2f3f2" d="M86.4 11.6L7.3 91.3l41 20.3 38.1-19.5z"/>
    <path d="M5.5 37.5v54.1l1.4.7 39.5 20.1 1.2.6 1.2-.6 38.1-20.1 1.4-.7V8.7H5.5v28.8zm2.6 52.6V11.3h77.6v78.8l-38.1 20.1L8.1 90.1z" fill="#dcdedc"/>
    <path d="M46.9 12.6c.4 0 .8 0 1.2.1L46.9 15c-1.8-.1-3.4 1.3-3.5 3.1-.1 1.8 1.3 3.4 3.1 3.5h.4c.8 0 1.6-.3 2.2-.8l1.3 2.2c-1 .7-2.2 1.1-3.5 1.1-3.2.1-5.9-2.3-6-5.5-.1-3.2 2.3-5.9 5.5-6h.5zm4.1 4.9l1.5 2.5-1.5 2.4-1.4-2.4h-2.9l1.5-2.5H51zm-2.4-.9c0-.4.1-.8.3-1.1.2-.3.6-.6.9-.8l.2-.1c.4-.2.5-.3.5-.5s-.3-.4-.5-.4c-.4 0-.7.2-.9.6l-.5-.5c.1-.2.3-.4.5-.6.3-.2.6-.2.9-.2.3 0 .7.1.9.3.2.2.4.5.4.8 0 .5-.3.9-.9 1.1l-.3.2c-.3.2-.5.3-.6.6h1.8v.7l-2.7-.1zm-1.7 12.5l9.5-5.4v-15H37.3v14.9l9.6 5.5z" fill="#ff492c"/>
    <path id="banner" d="M90.2 64.5H3.6l-3.2 7 3.2 7h86.6l3.1-7z" fill="#ff492c"/>
  <path fill="#252530" transform="translate(17.74, 60)" d="M1.31 0L1.31 0Q1.22 0 1.16-0.06L1.16-0.06L1.16-0.06Q1.10-0.13 1.10-0.22L1.10-0.22L1.10-12.38L1.10-12.38Q1.10-12.47 1.16-12.54L1.16-12.54L1.16-12.54Q1.22-12.60 1.31-12.60L1.31-12.60L3.42-12.60L3.42-12.60Q3.51-12.60 3.57-12.54L3.57-12.54L3.57-12.54Q3.64-12.47 3.64-12.38L3.64-12.38L3.64-2.27L3.64-2.27Q3.64-2.18 3.73-2.18L3.73-2.18L9.61-2.18L9.61-2.18Q9.70-2.18 9.77-2.12L9.77-2.12L9.77-2.12Q9.83-2.05 9.83-1.96L9.83-1.96L9.83-0.22L9.83-0.22Q9.83-0.13 9.77-0.06L9.77-0.06L9.77-0.06Q9.70 0 9.61 0L9.61 0L1.31 0ZM19.42-5.58L19.42-5.58Q19.53-4.90 19.49-4.05L19.49-4.05L19.49-4.05Q19.48-3.83 19.26-3.83L19.26-3.83L13.70-3.83L13.70-3.83Q13.59-3.83 13.63-3.74L13.63-3.74L13.63-3.74Q13.68-3.38 13.82-3.02L13.82-3.02L13.82-3.02Q14.29-2.02 15.73-2.02L15.73-2.02L15.73-2.02Q16.88-2.03 17.55-2.95L17.55-2.95L17.55-2.95Q17.62-3.06 17.71-3.06L17.71-3.06L17.71-3.06Q17.77-3.06 17.84-2.99L17.84-2.99L19.13-1.71L19.13-1.71Q19.22-1.62 19.22-1.55L19.22-1.55L19.22-1.55Q19.22-1.51 19.15-1.40L19.15-1.40L19.15-1.40Q18.56-0.67 17.62-0.26L17.62-0.26L17.62-0.26Q16.69 0.14 15.57 0.14L15.57 0.14L15.57 0.14Q14.02 0.14 12.95-0.56L12.95-0.56L12.95-0.56Q11.88-1.26 11.41-2.52L11.41-2.52L11.41-2.52Q11.03-3.42 11.03-4.88L11.03-4.88L11.03-4.88Q11.03-5.87 11.30-6.62L11.30-6.62L11.30-6.62Q11.72-7.90 12.75-8.66L12.75-8.66L12.75-8.66Q13.79-9.41 15.21-9.41L15.21-9.41L15.21-9.41Q17.01-9.41 18.10-8.37L18.10-8.37L18.10-8.37Q19.19-7.33 19.42-5.58L19.42-5.58ZM15.23-7.22L15.23-7.22Q14.09-7.22 13.73-6.16L13.73-6.16L13.73-6.16Q13.66-5.92 13.61-5.58L13.61-5.58L13.61-5.58Q13.61-5.49 13.70-5.49L13.70-5.49L16.81-5.49L16.81-5.49Q16.92-5.49 16.88-5.58L16.88-5.58L16.88-5.58Q16.79-6.10 16.79-6.08L16.79-6.08L16.79-6.08Q16.63-6.62 16.23-6.92L16.23-6.92L16.23-6.92Q15.82-7.22 15.23-7.22L15.23-7.22ZM24.75-9.40L24.75-9.40Q25.92-9.40 26.84-8.99L26.84-8.99L26.84-8.99Q27.76-8.59 28.27-7.88L28.27-7.88L28.27-7.88Q28.78-7.18 28.78-6.32L28.78-6.32L28.78-0.22L28.78-0.22Q28.78-0.13 28.72-0.06L28.72-0.06L28.72-0.06Q28.66 0 28.57 0L28.57 0L26.46 0L26.46 0Q26.37 0 26.31-0.06L26.31-0.06L26.31-0.06Q26.24-0.13 26.24-0.22L26.24-0.22L26.24-0.81L26.24-0.81Q26.24-0.86 26.21-0.88L26.21-0.88L26.21-0.88Q26.17-0.90 26.14-0.85L26.14-0.85L26.14-0.85Q25.38 0.14 23.71 0.14L23.71 0.14L23.71 0.14Q22.30 0.14 21.44-0.54L21.44-0.54L21.44-0.54Q20.57-1.22 20.57-2.56L20.57-2.56L20.57-2.56Q20.57-3.94 21.55-4.71L21.55-4.71L21.55-4.71Q22.52-5.47 24.32-5.47L24.32-5.47L26.15-5.47L26.15-5.47Q26.24-5.47 26.24-5.56L26.24-5.56L26.24-5.96L26.24-5.96Q26.24-6.55 25.88-6.89L25.88-6.89L25.88-6.89Q25.52-7.22 24.80-7.22L24.80-7.22L24.80-7.22Q24.25-7.22 23.88-7.02L23.88-7.02L23.88-7.02Q23.51-6.82 23.40-6.46L23.40-6.46L23.40-6.46Q23.35-6.26 23.17-6.28L23.17-6.28L20.99-6.57L20.99-6.57Q20.77-6.61 20.79-6.73L20.79-6.73L20.79-6.73Q20.86-7.49 21.39-8.10L21.39-8.10L21.39-8.10Q21.92-8.71 22.80-9.05L22.80-9.05L22.80-9.05Q23.67-9.40 24.75-9.40L24.75-9.40ZM24.39-1.75L24.39-1.75Q25.16-1.75 25.70-2.16L25.70-2.16L25.70-2.16Q26.24-2.57 26.24-3.22L26.24-3.22L26.24-3.87L26.24-3.87Q26.24-3.96 26.15-3.96L26.15-3.96L24.86-3.96L24.86-3.96Q24.05-3.96 23.59-3.65L23.59-3.65L23.59-3.65Q23.13-3.35 23.13-2.79L23.13-2.79L23.13-2.79Q23.13-2.30 23.47-2.03L23.47-2.03L23.47-2.03Q23.81-1.75 24.39-1.75L24.39-1.75ZM36.31-12.38L36.31-12.38Q36.31-12.47 36.37-12.54L36.37-12.54L36.37-12.54Q36.43-12.60 36.52-12.60L36.52-12.60L38.63-12.60L38.63-12.60Q38.72-12.60 38.78-12.54L38.78-12.54L38.78-12.54Q38.84-12.47 38.84-12.38L38.84-12.38L38.84-0.22L38.84-0.22Q38.84-0.13 38.78-0.06L38.78-0.06L38.78-0.06Q38.72 0 38.63 0L38.63 0L36.52 0L36.52 0Q36.43 0 36.37-0.06L36.37-0.06L36.37-0.06Q36.31-0.13 36.31-0.22L36.31-0.22L36.31-0.81L36.31-0.81Q36.31-0.86 36.27-0.87L36.27-0.87L36.27-0.87Q36.23-0.88 36.20-0.85L36.20-0.85L36.20-0.85Q35.44 0.14 34.13 0.14L34.13 0.14L34.13 0.14Q32.87 0.14 31.96-0.56L31.96-0.56L31.96-0.56Q31.05-1.26 30.65-2.48L30.65-2.48L30.65-2.48Q30.35-3.42 30.35-4.66L30.35-4.66L30.35-4.66Q30.35-5.94 30.67-6.89L30.67-6.89L30.67-6.89Q31.09-8.05 31.98-8.72L31.98-8.72L31.98-8.72Q32.87-9.40 34.18-9.40L34.18-9.40L34.18-9.40Q35.48-9.40 36.20-8.50L36.20-8.50L36.20-8.50Q36.23-8.44 36.27-8.46L36.27-8.46L36.27-8.46Q36.31-8.48 36.31-8.53L36.31-8.53L36.31-12.38ZM35.93-2.81L35.93-2.81Q36.29-3.47 36.29-4.63L36.29-4.63L36.29-4.63Q36.29-5.83 35.89-6.52L35.89-6.52L35.89-6.52Q35.48-7.22 34.69-7.22L34.69-7.22L34.69-7.22Q33.84-7.22 33.41-6.52L33.41-6.52L33.41-6.52Q32.96-5.81 32.96-4.61L32.96-4.61L32.96-4.61Q32.96-3.53 33.34-2.81L33.34-2.81L33.34-2.81Q33.79-2.03 34.67-2.03L34.67-2.03L34.67-2.03Q35.48-2.03 35.93-2.81L35.93-2.81ZM48.94-5.58L48.94-5.58Q49.05-4.90 49.01-4.05L49.01-4.05L49.01-4.05Q49.00-3.83 48.78-3.83L48.78-3.83L43.22-3.83L43.22-3.83Q43.11-3.83 43.15-3.74L43.15-3.74L43.15-3.74Q43.20-3.38 43.34-3.02L43.34-3.02L43.34-3.02Q43.81-2.02 45.25-2.02L45.25-2.02L45.25-2.02Q46.40-2.03 47.07-2.95L47.07-2.95L47.07-2.95Q47.14-3.06 47.23-3.06L47.23-3.06L47.23-3.06Q47.29-3.06 47.36-2.99L47.36-2.99L48.65-1.71L48.65-1.71Q48.74-1.62 48.74-1.55L48.74-1.55L48.74-1.55Q48.74-1.51 48.67-1.40L48.67-1.40L48.67-1.40Q48.08-0.67 47.14-0.26L47.14-0.26L47.14-0.26Q46.21 0.14 45.09 0.14L45.09 0.14L45.09 0.14Q43.54 0.14 42.47-0.56L42.47-0.56L42.47-0.56Q41.40-1.26 40.93-2.52L40.93-2.52L40.93-2.52Q40.55-3.42 40.55-4.88L40.55-4.88L40.55-4.88Q40.55-5.87 40.82-6.62L40.82-6.62L40.82-6.62Q41.24-7.90 42.27-8.66L42.27-8.66L42.27-8.66Q43.31-9.41 44.73-9.41L44.73-9.41L44.73-9.41Q46.53-9.41 47.62-8.37L47.62-8.37L47.62-8.37Q48.71-7.33 48.94-5.58L48.94-5.58ZM44.75-7.22L44.75-7.22Q43.61-7.22 43.25-6.16L43.25-6.16L43.25-6.16Q43.18-5.92 43.13-5.58L43.13-5.58L43.13-5.58Q43.13-5.49 43.22-5.49L43.22-5.49L46.33-5.49L46.33-5.49Q46.44-5.49 46.40-5.58L46.40-5.58L46.40-5.58Q46.31-6.10 46.31-6.08L46.31-6.08L46.31-6.08Q46.15-6.62 45.75-6.92L45.75-6.92L45.75-6.92Q45.34-7.22 44.75-7.22L44.75-7.22ZM55.19-9.38L55.19-9.38Q55.84-9.38 56.21-9.13L56.21-9.13L56.21-9.13Q56.36-9.05 56.32-8.86L56.32-8.86L55.94-6.80L55.94-6.80Q55.93-6.59 55.69-6.68L55.69-6.68L55.69-6.68Q55.42-6.77 55.06-6.77L55.06-6.77L55.06-6.77Q54.92-6.77 54.67-6.73L54.67-6.73L54.67-6.73Q54.02-6.68 53.57-6.26L53.57-6.26L53.57-6.26Q53.12-5.83 53.12-5.13L53.12-5.13L53.12-0.22L53.12-0.22Q53.12-0.13 53.06-0.06L53.06-0.06L53.06-0.06Q52.99 0 52.90 0L52.90 0L50.80 0L50.80 0Q50.71 0 50.64-0.06L50.64-0.06L50.64-0.06Q50.58-0.13 50.58-0.22L50.58-0.22L50.58-9.04L50.58-9.04Q50.58-9.13 50.64-9.19L50.64-9.19L50.64-9.19Q50.71-9.25 50.80-9.25L50.80-9.25L52.90-9.25L52.90-9.25Q52.99-9.25 53.06-9.19L53.06-9.19L53.06-9.19Q53.12-9.13 53.12-9.04L53.12-9.04L53.12-8.35L53.12-8.35Q53.12-8.30 53.15-8.28L53.15-8.28L53.15-8.28Q53.19-8.26 53.21-8.30L53.21-8.30L53.21-8.30Q53.95-9.38 55.19-9.38L55.19-9.38Z"/><path fill="#fff" transform="translate(34.66, 75.4)" d="M5.46-6.12L5.46-6.12Q5.46-6.07 5.42-6.04L5.42-6.04L5.42-6.04Q5.39-6 5.34-6L5.34-6L1.94-6L1.94-6Q1.89-6 1.89-5.95L1.89-5.95L1.89-4.08L1.89-4.08Q1.89-4.03 1.94-4.03L1.94-4.03L4.23-4.03L4.23-4.03Q4.28-4.03 4.32-4.00L4.32-4.00L4.32-4.00Q4.35-3.96 4.35-3.91L4.35-3.91L4.35-3.15L4.35-3.15Q4.35-3.10 4.32-3.06L4.32-3.06L4.32-3.06Q4.28-3.03 4.23-3.03L4.23-3.03L1.94-3.03L1.94-3.03Q1.89-3.03 1.89-2.98L1.89-2.98L1.89-0.12L1.89-0.12Q1.89-0.07 1.85-0.04L1.85-0.04L1.85-0.04Q1.82 0 1.77 0L1.77 0L0.85 0L0.85 0Q0.80 0 0.77-0.04L0.77-0.04L0.77-0.04Q0.73-0.07 0.73-0.12L0.73-0.12L0.73-6.88L0.73-6.88Q0.73-6.93 0.77-6.96L0.77-6.96L0.77-6.96Q0.80-7 0.85-7L0.85-7L5.34-7L5.34-7Q5.39-7 5.42-6.96L5.42-6.96L5.42-6.96Q5.46-6.93 5.46-6.88L5.46-6.88L5.46-6.12ZM10.70 0L10.70 0Q10.60 0 10.57-0.10L10.57-0.10L10.24-1.17L10.24-1.17Q10.22-1.21 10.19-1.21L10.19-1.21L7.55-1.21L7.55-1.21Q7.52-1.21 7.50-1.17L7.50-1.17L7.17-0.10L7.17-0.10Q7.14 0 7.04 0L7.04 0L6.04 0L6.04 0Q5.98 0 5.95-0.04L5.95-0.04L5.95-0.04Q5.92-0.07 5.94-0.14L5.94-0.14L8.11-6.90L8.11-6.90Q8.14-7 8.24-7L8.24-7L9.49-7L9.49-7Q9.59-7 9.62-6.90L9.62-6.90L11.80-0.14L11.80-0.14Q11.81-0.12 11.81-0.09L11.81-0.09L11.81-0.09Q11.81 0 11.70 0L11.70 0L10.70 0ZM7.81-2.18L7.81-2.18Q7.80-2.12 7.85-2.12L7.85-2.12L9.88-2.12L9.88-2.12Q9.94-2.12 9.92-2.18L9.92-2.18L8.89-5.53L8.89-5.53Q8.88-5.57 8.86-5.57L8.86-5.57L8.86-5.57Q8.84-5.57 8.83-5.53L8.83-5.53L7.81-2.18ZM12.96 0L12.96 0Q12.91 0 12.88-0.04L12.88-0.04L12.88-0.04Q12.84-0.07 12.84-0.12L12.84-0.12L12.84-6.88L12.84-6.88Q12.84-6.93 12.88-6.96L12.88-6.96L12.88-6.96Q12.91-7 12.96-7L12.96-7L13.88-7L13.88-7Q13.93-7 13.96-6.96L13.96-6.96L13.96-6.96Q14-6.93 14-6.88L14-6.88L14-1.05L14-1.05Q14-1 14.05-1L14.05-1L17.40-1L17.40-1Q17.45-1 17.48-0.96L17.48-0.96L17.48-0.96Q17.52-0.93 17.52-0.88L17.52-0.88L17.52-0.12L17.52-0.12Q17.52-0.07 17.48-0.04L17.48-0.04L17.48-0.04Q17.45 0 17.40 0L17.40 0L12.96 0ZM18.67 0L18.67 0Q18.62 0 18.59-0.04L18.59-0.04L18.59-0.04Q18.55-0.07 18.55-0.12L18.55-0.12L18.55-6.88L18.55-6.88Q18.55-6.93 18.59-6.96L18.59-6.96L18.59-6.96Q18.62-7 18.67-7L18.67-7L19.59-7L19.59-7Q19.64-7 19.68-6.96L19.68-6.96L19.68-6.96Q19.71-6.93 19.71-6.88L19.71-6.88L19.71-1.05L19.71-1.05Q19.71-1 19.76-1L19.76-1L23.11-1L23.11-1Q23.16-1 23.20-0.96L23.20-0.96L23.20-0.96Q23.23-0.93 23.23-0.88L23.23-0.88L23.23-0.12L23.23-0.12Q23.23-0.07 23.20-0.04L23.20-0.04L23.20-0.04Q23.16 0 23.11 0L23.11 0L18.67 0Z"/><path fill="#252530" transform="translate(32.19, 95.3)" d="M3.38-1.84L3.38-1.84Q3.35-1.81 3.36-1.78L3.36-1.78L3.36-1.78Q3.38-1.75 3.42-1.75L3.42-1.75L7.35-1.75L7.35-1.75Q7.42-1.75 7.47-1.70L7.47-1.70L7.47-1.70Q7.53-1.65 7.53-1.58L7.53-1.58L7.53-0.17L7.53-0.17Q7.53-0.10 7.47-0.05L7.47-0.05L7.47-0.05Q7.42 0 7.35 0L7.35 0L0.83 0L0.83 0Q0.75 0 0.70-0.05L0.70-0.05L0.70-0.05Q0.65-0.10 0.65-0.17L0.65-0.17L0.65-1.51L0.65-1.51Q0.65-1.64 0.74-1.73L0.74-1.73L0.74-1.73Q1.45-2.42 2.19-3.24L2.19-3.24L2.19-3.24Q2.93-4.06 3.12-4.26L3.12-4.26L3.12-4.26Q3.52-4.74 3.94-5.18L3.94-5.18L3.94-5.18Q5.26-6.64 5.26-7.35L5.26-7.35L5.26-7.35Q5.26-7.86 4.90-8.19L4.90-8.19L4.90-8.19Q4.54-8.51 3.96-8.51L3.96-8.51L3.96-8.51Q3.38-8.51 3.02-8.19L3.02-8.19L3.02-8.19Q2.65-7.86 2.65-7.32L2.65-7.32L2.65-6.96L2.65-6.96Q2.65-6.89 2.60-6.84L2.60-6.84L2.60-6.84Q2.55-6.79 2.48-6.79L2.48-6.79L0.77-6.79L0.77-6.79Q0.70-6.79 0.65-6.84L0.65-6.84L0.65-6.84Q0.59-6.89 0.59-6.96L0.59-6.96L0.59-7.64L0.59-7.64Q0.64-8.42 1.09-9.03L1.09-9.03L1.09-9.03Q1.54-9.63 2.28-9.95L2.28-9.95L2.28-9.95Q3.03-10.27 3.96-10.27L3.96-10.27L3.96-10.27Q4.99-10.27 5.75-9.88L5.75-9.88L5.75-9.88Q6.51-9.50 6.92-8.85L6.92-8.85L6.92-8.85Q7.34-8.19 7.34-7.40L7.34-7.40L7.34-7.40Q7.34-6.79 7.03-6.15L7.03-6.15L7.03-6.15Q6.73-5.51 6.12-4.77L6.12-4.77L6.12-4.77Q5.67-4.21 5.15-3.65L5.15-3.65L5.15-3.65Q4.63-3.10 3.60-2.06L3.60-2.06L3.38-1.84ZM12.24 0.16L12.24 0.16Q10.64 0.16 9.72-0.73L9.72-0.73L9.72-0.73Q8.79-1.62 8.79-3.16L8.79-3.16L8.79-6.99L8.79-6.99Q8.79-8.50 9.72-9.38L9.72-9.38L9.72-9.38Q10.64-10.27 12.24-10.27L12.24-10.27L12.24-10.27Q13.83-10.27 14.77-9.38L14.77-9.38L14.77-9.38Q15.70-8.50 15.70-6.99L15.70-6.99L15.70-3.16L15.70-3.16Q15.70-1.62 14.77-0.73L14.77-0.73L14.77-0.73Q13.83 0.16 12.24 0.16L12.24 0.16ZM12.24-1.59L12.24-1.59Q12.89-1.59 13.27-1.99L13.27-1.99L13.27-1.99Q13.66-2.39 13.66-3.06L13.66-3.06L13.66-7.05L13.66-7.05Q13.66-7.71 13.27-8.11L13.27-8.11L13.27-8.11Q12.89-8.51 12.24-8.51L12.24-8.51L12.24-8.51Q11.60-8.51 11.22-8.11L11.22-8.11L11.22-8.11Q10.83-7.71 10.83-7.05L10.83-7.05L10.83-3.06L10.83-3.06Q10.83-2.39 11.22-1.99L11.22-1.99L11.22-1.99Q11.60-1.59 12.24-1.59L12.24-1.59ZM18.40-10.11L18.40-10.11Q18.47-10.15 18.62-10.15L18.62-10.15L20.37-10.15L20.37-10.15Q20.45-10.15 20.50-10.10L20.50-10.10L20.50-10.10Q20.55-10.05 20.55-9.98L20.55-9.98L20.55-0.17L20.55-0.17Q20.55-0.10 20.50-0.05L20.50-0.05L20.50-0.05Q20.45 0 20.37 0L20.37 0L18.68 0L18.68 0Q18.60 0 18.55-0.05L18.55-0.05L18.55-0.05Q18.50-0.10 18.50-0.17L18.50-0.17L18.50-8.12L18.50-8.12Q18.50-8.15 18.47-8.18L18.47-8.18L18.47-8.18Q18.44-8.21 18.41-8.19L18.41-8.19L16.98-7.80L16.92-7.79L16.92-7.79Q16.79-7.79 16.79-7.95L16.79-7.95L16.75-9.19L16.75-9.19Q16.75-9.34 16.88-9.40L16.88-9.40L18.40-10.11ZM28.19-8.31L28.19-8.31Q28.43-7.71 28.43-6.89L28.43-6.89L28.43-2.52L28.43-2.52Q28.43-1.74 28.03-1.14L28.03-1.14L28.03-1.14Q27.62-0.54 26.88-0.21L26.88-0.21L26.88-0.21Q26.14 0.12 25.19 0.12L25.19 0.12L25.19 0.12Q24.24 0.12 23.52-0.21L23.52-0.21L23.52-0.21Q22.79-0.54 22.39-1.12L22.39-1.12L22.39-1.12Q21.98-1.71 21.98-2.48L21.98-2.48L21.98-2.89L21.98-2.89Q21.98-2.96 22.03-3.01L22.03-3.01L22.03-3.01Q22.08-3.06 22.16-3.06L22.16-3.06L23.85-3.06L23.85-3.06Q23.93-3.06 23.98-3.01L23.98-3.01L23.98-3.01Q24.03-2.96 24.03-2.89L24.03-2.89L24.03-2.76L24.03-2.76Q24.03-2.28 24.35-1.96L24.35-1.96L24.35-1.96Q24.68-1.64 25.19-1.64L25.19-1.64L25.19-1.64Q25.72-1.64 26.06-1.96L26.06-1.96L26.06-1.96Q26.39-2.29 26.39-2.80L26.39-2.80L26.39-4.15L26.39-4.15Q26.39-4.19 26.36-4.21L26.36-4.21L26.36-4.21Q26.33-4.22 26.30-4.19L26.30-4.19L26.30-4.19Q25.71-3.68 24.74-3.68L24.74-3.68L24.74-3.68Q23.87-3.68 23.18-4.08L23.18-4.08L23.18-4.08Q22.49-4.48 22.10-5.23L22.10-5.23L22.10-5.23Q21.74-5.92 21.74-6.90L21.74-6.90L21.74-6.90Q21.74-7.76 22.03-8.41L22.03-8.41L22.03-8.41Q22.39-9.27 23.19-9.76L23.19-9.76L23.19-9.76Q24.00-10.25 25.09-10.25L25.09-10.25L25.09-10.25Q26.19-10.25 27.01-9.74L27.01-9.74L27.01-9.74Q27.83-9.22 28.19-8.31L28.19-8.31ZM25.09-5.39L25.09-5.39Q25.84-5.39 26.17-5.99L26.17-5.99L26.17-5.99Q26.39-6.37 26.39-6.96L26.39-6.96L26.39-6.96Q26.39-7.44 26.20-7.84L26.20-7.84L26.20-7.84Q25.88-8.48 25.10-8.48L25.10-8.48L25.10-8.48Q24.35-8.48 24.00-7.84L24.00-7.84L24.00-7.84Q23.78-7.44 23.78-6.93L23.78-6.93L23.78-6.93Q23.78-6.38 24.03-5.97L24.03-5.97L24.03-5.97Q24.39-5.39 25.09-5.39L25.09-5.39Z"/></g>
</svg>
