<?xml version="1.0" encoding="utf-8"?>
<!-- Generator: Adobe Illustrator 23.0.3, SVG Export Plug-In . SVG Version: 6.00 Build 0)  -->
<svg version="1.1" id="Layer_1" xmlns="http://www.w3.org/2000/svg" xmlns:xlink="http://www.w3.org/1999/xlink" x="0px" y="0px"
	 viewBox="0 0 265.6 72.2" style="enable-background:new 0 0 265.6 72.2;" xml:space="preserve">
<style type="text/css">
	.st0{fill:#FFFFFF;}
</style>
<path class="st0" d="M91,71.5c-0.3,0.5-0.8,0.8-1.4,0.8H72.1c-0.5,0-0.7-0.4-0.5-0.8l18.5-32.6c0.2-0.5,0.2-1.1,0-1.6l-18.5-34
	c-0.2-0.2-0.1-0.5,0.1-0.7c0.1-0.1,0.3-0.1,0.4-0.1h17.6c0.6,0,1.1,0.3,1.4,0.8l18.5,34c0.2,0.5,0.2,1.1,0,1.6L91,71.5z M61.1,62.1
	c6.5-6.9,11.1-15.2,11.1-26C72.2,16.1,56.1,0,36.1,0S0.1,16.1,0.1,36.1c0,19.3,15.1,35.9,34.3,36.2h32.4c0.3,0,0.5-0.3,0.5-0.6
	c0-0.1,0-0.1-0.1-0.2L61.1,62.1z M36.1,55.1c-10.5,0-19-8.5-19-19s8.5-19,19-19s19,8.5,19,19S46.6,55.1,36.1,55.1z M103.1,68.8
	c0-0.5,0.1-0.9,0.3-1.3c0.2-0.4,0.4-0.8,0.7-1.1c0.3-0.3,0.7-0.6,1.1-0.7c0.8-0.3,1.8-0.3,2.6,0c0.4,0.2,0.8,0.4,1.1,0.7
	c0.3,0.3,0.6,0.7,0.7,1.1c0.2,0.4,0.3,0.9,0.3,1.3c0,0.5-0.1,0.9-0.3,1.3c-0.3,0.8-1,1.4-1.8,1.8c-0.8,0.3-1.8,0.3-2.6,0
	c-0.8-0.3-1.5-1-1.8-1.8C103.2,69.8,103.1,69.3,103.1,68.8L103.1,68.8z M103.6,68.8c0,0.4,0.1,0.8,0.2,1.1c0.1,0.3,0.3,0.7,0.6,0.9
	c0.3,0.3,0.6,0.5,0.9,0.6c0.7,0.3,1.5,0.3,2.2,0c0.7-0.3,1.2-0.8,1.5-1.5c0.1-0.3,0.2-0.7,0.2-1.1c0-0.4-0.1-0.8-0.2-1.1
	c-0.3-0.7-0.8-1.2-1.5-1.5c-0.7-0.3-1.5-0.3-2.2,0c-0.3,0.1-0.6,0.4-0.9,0.6c-0.3,0.3-0.5,0.6-0.6,0.9
	C103.7,68.1,103.6,68.5,103.6,68.8z M107.3,70.7l-0.8-1.5H106v1.5h-0.9v-3.8h1.6c0.2,0,0.3,0,0.5,0.1c0.2,0,0.3,0.1,0.5,0.2
	c0.1,0.1,0.3,0.2,0.3,0.4c0.1,0.2,0.1,0.4,0.1,0.6c0,0.2-0.1,0.5-0.2,0.6c-0.1,0.2-0.3,0.3-0.5,0.4l1,1.6H107.3z M106.7,68.6
	c0.2,0,0.3,0,0.4-0.1c0.1-0.1,0.2-0.2,0.2-0.4c0-0.1-0.1-0.3-0.2-0.3c-0.1-0.1-0.2-0.1-0.3-0.1H106v0.9L106.7,68.6z M185.6,25
	c-0.6,1.4-1.4,2.6-2.5,3.6c-1.1,1-2.5,1.8-3.9,2.4c-3.3,1.1-6.9,1.1-10.2,0c-1.4-0.5-2.7-1.3-3.8-2.4c-1.1-1-1.9-2.3-2.4-3.6
	c-0.6-1.5-0.9-3.1-0.9-4.7V2.5h6.9v17.3c0,0.8,0.1,1.5,0.3,2.2c0.2,0.7,0.5,1.3,0.9,1.9c0.4,0.6,1,1,1.7,1.3c1.6,0.7,3.4,0.7,5,0
	c0.7-0.3,1.2-0.7,1.7-1.3c0.4-0.6,0.7-1.2,0.9-1.9c0.2-0.7,0.3-1.5,0.3-2.2V2.5h6.9v17.8C186.5,21.9,186.2,23.5,185.6,25L185.6,25z
	 M194.1,31.1V2.5h6.9v28.6L194.1,31.1z M229.4,30.6c-2,0.9-4.2,1.3-6.4,1.3c-2.1,0-4.2-0.3-6.1-1.1c-3.7-1.4-6.6-4.2-8.1-7.9
	c-1.6-4-1.6-8.4,0-12.4c0.7-1.8,1.9-3.4,3.3-4.8c1.4-1.3,3.1-2.3,4.9-3c3.9-1.4,8.2-1.4,12.1,0c1.8,0.6,3.5,1.7,4.8,3.1l-4.7,4.7
	c-0.6-0.9-1.5-1.6-2.5-2c-1-0.4-2.1-0.6-3.2-0.6c-1.1,0-2.3,0.2-3.3,0.7c-1,0.4-1.9,1.1-2.6,1.8c-0.7,0.8-1.3,1.7-1.7,2.8
	c-0.4,1.1-0.6,2.3-0.6,3.5c0,1.2,0.2,2.4,0.6,3.5c0.4,1,0.9,2,1.7,2.8c0.7,0.8,1.6,1.4,2.6,1.8c1,0.4,2.1,0.7,3.3,0.6
	c1.2,0,2.5-0.2,3.6-0.8c1-0.5,1.8-1.2,2.5-2.1l4.8,4.5C232.8,28.6,231.2,29.8,229.4,30.6L229.4,30.6z M256.5,31.1l-10.6-13.2h-0.1
	v13.2h-6.7V2.5h6.7v11.6h0.1l10.2-11.6h8.6l-12.3,13.2l13.1,15.4L256.5,31.1z M155.8,16.3c0.1-8.2-6.4-15-14.6-15.2
	c-8.2-0.2-15.1,6.3-15.3,14.5s6.1,15.1,14.3,15.5v0.1H154l-2.7-4.5C153.4,25.4,155.8,20.8,155.8,16.3L155.8,16.3z M140.8,24.6
	c-4.6,0.2-8.5-3.5-8.7-8.1c-0.2-4.6,3.5-8.5,8.1-8.7s8.5,3.5,8.7,8.1c0,0.1,0,0.2,0,0.3C148.9,20.8,146.6,24.6,140.8,24.6
	L140.8,24.6z M129.7,42.9h8.5c1.1,0,2.2,0.1,3.3,0.3c1.1,0.2,2.1,0.6,3,1.2c0.9,0.6,1.6,1.3,2.1,2.2c0.6,1.1,0.9,2.3,0.8,3.6
	c0,1.4-0.5,2.8-1.4,3.9c-0.9,1.1-2.2,1.9-3.7,2.2v0.1c1.7,0.2,3.4,0.9,4.6,2.2c1.3,1.3,1.9,3.2,1.8,5c0,2.3-1,4.4-2.9,5.8
	c-1,0.7-2.1,1.3-3.4,1.6c-1.4,0.4-2.9,0.6-4.4,0.6h-8.5L129.7,42.9z M132.6,55.5h5.9c0.7,0,1.4-0.1,2.1-0.2c0.7-0.2,1.4-0.4,2-0.8
	c0.6-0.4,1.1-0.9,1.4-1.6c0.4-0.7,0.6-1.6,0.6-2.4c0-0.8-0.2-1.6-0.6-2.3c-0.4-0.6-0.9-1.2-1.5-1.6c-0.7-0.4-1.4-0.7-2.2-0.9
	c-0.9-0.2-1.8-0.3-2.7-0.3h-5.1V55.5z M132.6,69h5.4c1,0,2-0.1,3-0.3c0.9-0.2,1.7-0.5,2.5-1c0.7-0.4,1.3-1,1.7-1.7
	c1.2-2.3,0.7-5.1-1.3-6.8c-1.6-1-3.5-1.5-5.4-1.4h-5.9V69z M154.6,71.5h-3.2l12.4-28.6h2.8l12.3,28.6h-3.2l-3.1-7.5h-14.8
	L154.6,71.5z M158.8,61.3h12.6l-6.3-15.2L158.8,61.3z M198,47.5c-0.6-0.9-1.4-1.6-2.4-2.1c-1.1-0.6-2.3-0.8-3.5-0.8
	c-0.7,0-1.4,0.1-2.1,0.3c-0.7,0.2-1.4,0.6-2,1c-0.6,0.5-1.1,1-1.4,1.7c-0.4,0.7-0.6,1.6-0.5,2.4c0,0.8,0.1,1.6,0.5,2.3
	c0.4,0.6,0.8,1.1,1.4,1.5c0.6,0.4,1.3,0.8,2,1c0.7,0.3,1.5,0.5,2.3,0.8l3,1c1,0.4,1.9,0.9,2.7,1.5c0.8,0.6,1.5,1.4,2,2.3
	c0.5,1.1,0.8,2.3,0.8,3.5c0,1.3-0.3,2.5-0.8,3.7c-0.5,1-1.2,1.9-2.1,2.6c-0.9,0.7-1.9,1.2-3,1.5c-1.1,0.3-2.2,0.5-3.4,0.5
	c-0.9,0-1.7-0.1-2.6-0.3c-0.8-0.2-1.7-0.4-2.5-0.8c-0.8-0.3-1.5-0.8-2.2-1.3c-0.7-0.5-1.3-1.2-1.8-1.9l2.5-1.9
	c0.6,1.1,1.5,1.9,2.6,2.6c1.2,0.7,2.6,1,3.9,1c0.8,0,1.5-0.1,2.2-0.3c0.7-0.2,1.4-0.6,2-1.1c0.6-0.5,1.1-1.1,1.5-1.7
	c0.4-0.7,0.6-1.6,0.6-2.4c0-0.9-0.2-1.7-0.6-2.5c-0.4-0.7-0.9-1.2-1.6-1.7c-0.7-0.5-1.4-0.8-2.2-1.1l-2.6-0.9l-2.8-1
	c-0.9-0.4-1.7-0.9-2.5-1.5c-0.7-0.6-1.3-1.4-1.8-2.2c-0.9-2.2-0.9-4.7,0.2-6.8c0.5-1,1.3-1.8,2.2-2.5c0.9-0.6,1.9-1.1,2.9-1.4
	c1-0.3,2.1-0.4,3.2-0.5c1.7-0.1,3.4,0.3,5,1c1.2,0.6,2.3,1.4,3.1,2.5L198,47.5z M210.8,68.9h15.3v2.5h-18.2V42.9h17.7v2.6h-14.8v9.8
	h13.9v2.6h-13.9L210.8,68.9z"/>
</svg>
